<svg viewBox="0 0 500 500" xmlns="http://www.w3.org/2000/svg" role="img">
  <title>Viral DNA</title>
  <rect width="500" height="500" rx="96" fill="#6D28D9"/>
  <polygon points="55,58 215,58 180,112 242,434 250,444" fill="rgba(255,255,255,0.92)"/>
  <polygon points="445,58 285,58 320,112 258,434 250,444" fill="#C4B5FD"/>
  <path d="M250,168 C225,181 225,194 250,207 C275,220 275,233 250,246 C225,259 225,272 250,285 C275,298 275,311 250,324 C225,337 225,350 250,363 C275,376 275,389 250,402" fill="none" stroke="rgba(255,255,255,0.5)" stroke-width="8" stroke-linecap="round"/>
  <path d="M250,168 C275,181 275,194 250,207 C225,220 225,233 250,246 C275,259 275,272 250,285 C225,298 225,311 250,324 C275,337 275,350 250,363 C225,376 225,389 250,402" fill="none" stroke="white" stroke-width="8" stroke-linecap="round"/>
  <line x1="229" y1="187" x2="271" y2="187" stroke="rgba(255,255,255,0.75)" stroke-width="6" stroke-linecap="round"/>
  <line x1="229" y1="225" x2="271" y2="225" stroke="rgba(255,255,255,0.75)" stroke-width="6" stroke-linecap="round"/>
  <line x1="229" y1="265" x2="271" y2="265" stroke="rgba(255,255,255,0.75)" stroke-width="6" stroke-linecap="round"/>
  <line x1="229" y1="304" x2="271" y2="304" stroke="rgba(255,255,255,0.75)" stroke-width="6" stroke-linecap="round"/>
  <line x1="229" y1="343" x2="271" y2="343" stroke="rgba(255,255,255,0.75)" stroke-width="6" stroke-linecap="round"/>
  <line x1="229" y1="382" x2="271" y2="382" stroke="rgba(255,255,255,0.75)" stroke-width="6" stroke-linecap="round"/>
</svg>
